<?xml version="1.0" standalone="no"?>
<!DOCTYPE svg PUBLIC "-//W3C//DTD SVG 20010904//EN"
 "http://www.w3.org/TR/2001/REC-SVG-20010904/DTD/svg10.dtd">
<svg version="1.0" xmlns="http://www.w3.org/2000/svg"
 width="461.000000pt" height="461.000000pt" viewBox="0 0 461.000000 461.000000"
 preserveAspectRatio="xMidYMid meet">

<g transform="translate(0.000000,461.000000) scale(0.100000,-0.100000)"
fill="#000000" stroke="none">
<path d="M1857 4553 c-10 -3 -22 -15 -27 -28 -8 -20 -17 -24 -57 -27 -41 -3
-48 -6 -51 -25 -2 -14 -11 -23 -25 -25 -14 -2 -23 -11 -25 -25 -2 -14 -10 -23
-22 -23 -11 0 -20 -10 -24 -24 -4 -15 -14 -26 -29 -28 -14 -2 -23 -11 -25 -25
-3 -17 -10 -23 -28 -23 -19 0 -24 -5 -24 -24 0 -18 -6 -26 -22 -28 -14 -2 -24
-12 -28 -28 -4 -16 -14 -26 -28 -28 -14 -2 -22 -10 -22 -23 0 -14 -7 -19 -25
-19 -20 0 -25 -5 -25 -25 0 -20 -5 -25 -24 -25 -19 0 -25 -6 -28 -27 -2 -20
-9 -29 -25 -31 -14 -2 -23 -11 -25 -25 -2 -14 -11 -23 -25 -25 -14 -2 -23 -11
-25 -25 -2 -14 -11 -23 -25 -25 -22 -3 -23 -8 -23 -78 0 -72 -1 -74 -25 -74
-24 0 -25 -2 -25 -69 0 -65 2 -70 23 -73 20 -3 22 -10 27 -78 5 -68 7 -75 27
-78 19 -3 22 -11 25 -50 3 -40 6 -47 26 -50 16 -3 22 -10 22 -28 0 -19 5 -24
24 -24 23 0 25 -5 28 -47 3 -41 6 -48 26 -51 21 -3 22 -6 22 -127 0 -121 -1
-124 -22 -127 -21 -3 -23 -9 -26 -80 -3 -75 -4 -78 -27 -78 l-25 0 0 -125 0
-125 -25 0 -25 0 0 -125 0 -125 -25 0 -25 0 0 -125 0 -125 -25 0 c-20 0 -25
-5 -25 -25 0 -20 -5 -25 -25 -25 l-25 0 0 -174 c0 -173 0 -175 23 -178 14 -2
23 -11 25 -25 3 -17 10 -23 28 -23 22 0 24 -3 24 -55 0 -52 1 -55 25 -55 20 0
25 -5 25 -25 0 -20 5 -25 25 -25 18 0 25 -5 25 -20 0 -15 7 -20 25 -20 l25 0
0 -330 0 -330 25 0 25 0 0 -105 0 -105 25 0 c23 0 25 -4 25 -44 0 -38 3 -45
24 -50 15 -4 26 -14 28 -29 2 -14 11 -23 26 -25 16 -3 22 -10 22 -28 0 -19 5
-24 25 -24 20 0 25 -5 25 -25 0 -23 -3 -25 -50 -25 -47 0 -50 -2 -50 -25 0
-20 -5 -25 -25 -25 -20 0 -25 -5 -25 -24 0 -18 -6 -25 -22 -28 -21 -3 -23 -9
-26 -75 l-3 -73 376 0 375 0 0 200 0 200 25 6 c25 6 25 6 25 130 l0 124 29 0
c29 0 30 -2 33 -52 3 -46 6 -53 25 -56 14 -2 23 -11 25 -25 2 -14 11 -23 26
-25 19 -3 22 -9 22 -47 0 -37 3 -44 24 -49 15 -4 26 -14 28 -29 2 -14 11 -23
26 -25 19 -3 22 -9 22 -53 0 -46 -2 -49 -25 -49 -20 0 -25 -5 -25 -25 0 -20
-5 -25 -25 -25 -23 0 -25 -3 -25 -50 0 -47 -2 -50 -25 -50 -23 0 -25 -3 -25
-50 l0 -50 378 2 377 3 3 123 c2 114 4 122 22 122 17 0 20 7 20 50 0 43 -3 50
-20 50 -18 0 -20 7 -20 75 l0 75 -30 0 -30 0 0 74 c0 70 -1 74 -25 80 -23 6
-25 10 -25 71 0 60 -2 66 -25 75 -23 9 -24 13 -27 107 -3 93 -4 98 -25 101
-22 3 -23 6 -23 128 l0 124 25 0 c20 0 25 5 25 24 0 18 6 26 22 28 14 2 24 12
28 28 4 16 14 26 28 28 18 3 22 10 22 42 0 33 4 41 28 52 23 11 27 20 30 60
l3 47 47 3 c40 3 47 6 50 26 3 16 10 22 28 22 16 0 24 6 24 18 0 9 10 22 23
27 19 9 22 18 25 81 2 62 6 73 22 77 19 5 20 15 20 222 0 208 -1 217 -20 222
-18 5 -20 14 -20 104 0 98 0 99 -24 99 -18 0 -25 6 -28 23 -2 14 -11 23 -25
25 -22 3 -23 7 -23 101 l0 99 -30 6 c-38 7 -42 43 -6 52 13 3 26 14 29 25 3
10 17 23 31 29 16 6 26 17 26 30 0 15 7 20 25 20 20 0 25 5 25 25 0 18 5 25
19 25 12 0 21 9 25 24 4 15 14 26 29 28 14 2 23 11 25 26 3 16 10 22 28 22 19
0 24 5 24 25 0 20 5 25 25 25 20 0 25 5 25 24 0 18 6 25 23 28 14 2 23 11 25
26 3 16 10 22 28 22 19 0 24 5 24 25 0 20 5 25 25 25 20 0 25 5 25 25 0 20 5
25 25 25 20 0 25 5 25 25 0 20 5 25 25 25 20 0 25 5 25 24 0 18 6 25 23 28 14
2 23 11 25 26 3 16 10 22 28 22 19 0 24 5 24 25 0 20 5 25 25 25 l25 0 0 100
c0 95 1 100 21 100 13 0 23 8 26 21 3 11 16 24 29 29 12 5 24 19 26 32 2 15
11 24 25 26 14 2 23 11 25 25 2 18 11 23 53 27 42 4 50 8 53 28 3 16 10 22 28
22 l25 0 -3 98 c-3 91 -4 97 -25 100 -18 3 -22 11 -25 45 -2 34 -8 44 -30 55
-17 8 -28 21 -28 33 0 14 -7 19 -25 19 -20 0 -25 5 -25 24 0 18 -6 25 -22 28
-15 2 -24 11 -26 26 -3 21 -7 22 -123 22 l-119 0 0 -25 c0 -20 -5 -25 -24 -25
-18 0 -26 -6 -28 -22 -2 -14 -12 -24 -28 -28 -16 -4 -26 -14 -28 -27 -2 -14
-12 -23 -25 -25 -16 -2 -23 -11 -25 -30 -3 -22 -9 -28 -28 -28 -17 0 -24 -6
-24 -19 0 -13 -8 -21 -22 -23 -15 -2 -24 -11 -26 -25 -2 -13 -11 -23 -25 -25
-13 -2 -23 -12 -27 -28 -4 -16 -14 -26 -28 -28 -16 -2 -22 -10 -22 -28 0 -19
-5 -24 -24 -24 -18 0 -25 -6 -28 -22 -2 -15 -11 -24 -25 -26 -14 -2 -23 -11
-25 -25 -2 -14 -11 -23 -25 -25 -14 -2 -23 -11 -25 -25 -2 -14 -11 -23 -25
-25 -17 -3 -23 -10 -23 -28 0 -19 -5 -24 -24 -24 -18 0 -25 -6 -28 -22 -2 -15
-11 -24 -25 -26 -17 -3 -23 -10 -23 -28 0 -19 -5 -24 -25 -24 -20 0 -25 -5
-25 -25 0 -21 -5 -25 -30 -25 l-30 0 0 230 0 230 -25 0 c-20 0 -25 5 -25 25 0
20 -5 25 -25 25 -18 0 -25 5 -25 19 0 12 -9 21 -24 25 -15 4 -26 14 -28 29 -3
19 -10 22 -50 25 -43 3 -48 5 -48 28 0 19 -5 24 -25 24 -20 0 -25 5 -25 25 0
20 -5 25 -25 25 -20 0 -25 5 -25 25 0 23 -3 25 -49 25 -44 0 -50 3 -53 23 -2
14 -11 23 -25 25 -14 2 -23 11 -25 25 -2 14 -11 23 -25 25 -14 2 -23 11 -25
25 -3 19 -11 23 -58 29 -63 7 -436 8 -463 1z m2043 -227 c0 -18 6 -25 23 -28
19 -3 22 -10 25 -52 2 -37 7 -49 22 -53 10 -3 20 -15 22 -27 2 -13 11 -22 26
-24 20 -3 22 -8 22 -73 0 -67 -1 -69 -25 -69 -18 0 -25 -5 -25 -20 0 -13 -9
-22 -25 -26 -18 -4 -25 -13 -25 -30 0 -22 -4 -24 -50 -24 -47 0 -50 -2 -50
-25 0 -21 -5 -25 -29 -25 -25 0 -28 -3 -23 -25 4 -22 1 -25 -22 -25 -21 0 -26
-5 -26 -24 0 -18 -6 -25 -22 -28 -15 -2 -24 -11 -26 -25 -3 -19 1 -23 22 -23
25 0 26 -3 26 -55 0 -52 -1 -55 -25 -55 -18 0 -25 -5 -25 -20 0 -13 -9 -22
-25 -26 -15 -4 -25 -13 -25 -24 0 -13 -9 -20 -27 -22 -20 -2 -27 -8 -25 -21 2
-11 -6 -21 -23 -27 -18 -7 -25 -17 -25 -35 0 -21 -5 -25 -30 -25 -22 0 -30 -5
-30 -18 0 -50 -36 -33 -38 18 -1 30 5 45 27 69 16 17 38 31 50 31 19 0 21 6
21 50 0 44 3 50 20 50 12 0 24 9 29 22 5 15 21 25 52 32 34 9 45 16 47 34 3
20 0 22 -47 22 -47 0 -51 -2 -51 -24 0 -23 -4 -25 -52 -28 -46 -3 -53 -6 -56
-25 -3 -20 -9 -23 -48 -23 -42 0 -44 -1 -44 -30 l0 -30 -75 0 -75 0 0 126 c0
119 1 126 21 131 11 3 25 16 30 29 5 14 17 24 29 24 15 0 20 7 20 25 0 20 5
25 24 25 18 0 25 6 28 23 2 14 11 23 25 25 14 2 23 11 25 25 2 14 11 23 26 25
16 3 22 10 22 28 0 19 5 24 25 24 20 0 25 5 25 25 0 20 5 25 25 25 20 0 25 5
25 25 0 20 5 25 24 25 18 0 25 6 28 23 2 14 11 23 25 25 14 2 23 11 25 25 2
14 11 23 26 25 16 3 22 10 22 28 0 19 5 24 25 24 20 0 25 5 25 25 0 24 3 25
55 25 52 0 55 -2 55 -24z m-2281 -692 c2 -2 6 -34 9 -72 4 -66 3 -70 -24 -95
-17 -16 -40 -27 -56 -27 -23 0 -28 4 -28 25 0 20 -5 25 -25 25 -24 0 -25 2
-25 74 0 74 0 75 28 79 27 5 114 -2 121 -9z m495 10 c9 -3 16 -15 16 -25 0
-12 10 -23 25 -29 23 -9 25 -14 25 -80 0 -68 -1 -70 -25 -70 -20 0 -25 -5 -25
-25 0 -26 0 -26 -77 -23 -72 3 -78 5 -81 26 -3 16 -10 22 -28 22 -23 0 -24 2
-24 75 0 71 1 75 25 81 15 4 25 13 25 24 0 10 6 21 13 23 18 8 113 8 131 1z
m-44 -968 c0 -52 0 -53 -27 -48 -23 4 -25 2 -21 -16 6 -21 -13 -47 -25 -35 -4
3 -7 -1 -7 -10 0 -10 5 -14 15 -11 8 4 15 1 15 -4 0 -6 -15 -12 -32 -14 -27
-2 -32 -7 -30 -24 2 -16 -2 -22 -15 -20 -13 1 -19 -7 -21 -26 -3 -29 -14 -32
-97 -31 -40 1 -45 3 -45 23 0 16 7 20 30 20 25 0 29 4 27 22 -1 12 4 23 11 24
6 1 17 2 22 3 6 0 10 10 10 21 0 11 5 21 10 21 6 1 15 2 22 3 7 0 15 12 18 26
4 15 13 25 23 25 10 0 21 5 25 11 4 6 14 14 22 17 12 4 11 6 -2 6 -30 2 -20
17 10 16 20 0 27 5 28 20 3 34 4 35 19 35 11 0 15 -13 15 -54z m-403 -326 c-4
-16 0 -20 22 -20 26 0 28 -3 29 -46 2 -28 -2 -43 -8 -39 -5 3 -10 1 -10 -5 0
-6 -4 -9 -8 -6 -5 3 -22 1 -38 -4 -24 -7 -25 -8 -6 -9 22 -1 30 -25 12 -36 -5
-3 -10 1 -10 9 0 9 -4 16 -10 16 -5 0 -10 -7 -10 -15 0 -8 -4 -15 -10 -15 -5
0 -9 -10 -7 -22 1 -18 -3 -23 -20 -22 -23 1 -27 -6 -23 -41 2 -16 0 -17 -14
-6 -13 11 -16 11 -17 0 -1 -8 -5 -3 -9 11 -8 24 -8 24 -9 3 -1 -13 -7 -23 -13
-23 -10 0 -10 -2 0 -8 17 -12 5 -41 -16 -38 -13 2 -18 15 -20 49 -2 32 -8 47
-17 47 -8 0 -19 10 -26 21 -10 20 -9 21 15 17 23 -5 26 -2 26 23 0 23 5 28 28
31 21 2 26 8 24 25 -2 17 3 22 25 25 22 2 28 8 26 26 -2 12 3 23 10 23 6 1 17
2 22 4 6 1 19 3 30 4 11 2 15 5 8 8 -21 8 -15 33 8 33 16 0 20 -5 16 -20z
m-207 -1116 c0 -19 5 -24 24 -24 17 0 26 -7 30 -25 4 -16 13 -25 26 -25 13 0
24 -10 30 -25 8 -22 16 -25 55 -25 40 0 45 -2 42 -22 -2 -21 3 -24 48 -28 30
-3 50 -10 51 -17 2 -30 5 -33 29 -33 24 0 25 -2 25 -74 0 -70 1 -75 23 -78 21
-3 22 -8 25 -98 3 -115 -2 -140 -28 -140 -15 0 -20 -7 -20 -25 0 -14 -3 -24
-7 -24 -30 5 -43 -3 -43 -26 0 -24 -2 -25 -69 -25 -65 0 -70 2 -73 23 -2 14
-11 23 -25 25 -14 2 -23 11 -25 25 -2 16 -11 23 -31 25 -23 3 -26 7 -21 28 6
22 3 24 -25 24 -29 0 -31 2 -31 38 0 21 5 43 12 50 9 9 5 12 -20 12 l-32 0 0
250 c0 218 2 249 15 244 8 -4 15 -17 15 -30z m1021 -316 c1 -24 3 -35 6 -25 3
12 15 17 44 17 35 0 39 -3 39 -24 0 -19 6 -25 28 -28 22 -2 28 -9 33 -38 4
-19 7 -29 8 -22 0 6 10 12 20 12 14 0 18 -5 14 -19 -5 -20 11 -35 37 -36 8 0
16 -10 18 -22 2 -17 10 -23 27 -23 18 0 23 -5 22 -20 -1 -13 -8 -20 -23 -20
-15 0 -24 -8 -28 -26 -5 -19 -12 -25 -26 -21 -24 6 -29 -7 -23 -61 l4 -42 -95
0 c-96 0 -96 0 -96 25 0 26 -18 31 -87 27 -18 0 -23 5 -23 24 0 17 -5 24 -20
24 -21 0 -23 4 -24 60 -1 30 -5 35 -28 38 l-28 3 1 120 0 119 100 0 99 0 1
-42z m-679 -614 c58 -6 67 -10 70 -28 2 -15 9 -20 26 -18 18 3 22 -2 22 -22 0
-24 -3 -26 -50 -26 -47 0 -50 -2 -50 -25 l0 -26 -175 2 c-164 1 -175 3 -175
20 0 16 8 19 50 19 49 0 50 1 50 30 0 25 4 30 25 30 18 0 25 5 25 18 0 10 3
22 7 25 8 9 88 9 175 1z m778 -24 c14 -14 35 -20 70 -21 45 -1 93 -4 120 -8 6
0 10 -10 10 -21 0 -15 -6 -19 -22 -17 -18 2 -24 -4 -26 -25 l-3 -28 -150 0
-149 0 0 49 0 48 49 7 c29 4 51 12 55 21 7 20 22 19 46 -5z"/>
<path d="M2051 2704 c0 -11 3 -14 6 -6 3 7 2 16 -1 19 -3 4 -6 -2 -5 -13z"/>
<path d="M1850 2500 c0 -5 5 -10 11 -10 5 0 7 5 4 10 -3 6 -8 10 -11 10 -2 0
-4 -4 -4 -10z"/>
<path d="M1685 2310 c3 -5 8 -10 11 -10 2 0 4 5 4 10 0 6 -5 10 -11 10 -5 0
-7 -4 -4 -10z"/>
<path d="M1481 2174 c0 -11 3 -14 6 -6 3 7 2 16 -1 19 -3 4 -6 -2 -5 -13z"/>
<path d="M2631 624 c0 -11 3 -14 6 -6 3 7 2 16 -1 19 -3 4 -6 -2 -5 -13z"/>
</g>
</svg>
